<svg width="24" height="24" viewBox="0 0 24 24" fill="none" xmlns="http://www.w3.org/2000/svg">
<circle cx="12" cy="12" r="12" fill="#B9D7FB"/>
<path d="M4.81206 8.72727H6.11887V13.6847H6.18635L9.60609 8.72727H10.7886V16H9.47115V11.0462H9.41078L5.98038 16H4.81206V8.72727ZM14.9727 9.53693H16.4429C17.0111 9.53693 17.5154 9.65885 17.9557 9.9027C18.396 10.1465 18.7417 10.4898 18.9926 10.9325C19.2436 11.3729 19.3691 11.889 19.3691 12.4808C19.3691 13.0585 19.2436 13.5639 18.9926 13.9972C18.7417 14.4304 18.396 14.7678 17.9557 15.0092C17.5154 15.2483 17.0111 15.3679 16.4429 15.3679H14.9727C14.4022 15.3679 13.8956 15.2495 13.4529 15.0128C13.0125 14.7737 12.6669 14.4375 12.4159 14.0043C12.165 13.571 12.0395 13.0644 12.0395 12.4844C12.0395 11.8925 12.1662 11.3764 12.4195 10.9361C12.6728 10.4934 13.0196 10.1501 13.46 9.90625C13.9027 9.66004 14.4069 9.53693 14.9727 9.53693ZM14.9727 10.652C14.6271 10.652 14.3276 10.723 14.0743 10.8651C13.8234 11.0047 13.6292 11.2107 13.4919 11.483C13.3546 11.7552 13.286 12.089 13.286 12.4844C13.286 12.8632 13.3546 13.1839 13.4919 13.4467C13.6316 13.7095 13.8281 13.9096 14.0814 14.0469C14.3347 14.1842 14.6318 14.2528 14.9727 14.2528H16.4465C16.7897 14.2528 17.0857 14.1842 17.3343 14.0469C17.5852 13.9072 17.7781 13.706 17.9131 13.4432C18.0504 13.178 18.1191 12.8572 18.1191 12.4808C18.1191 12.0902 18.0504 11.7588 17.9131 11.4865C17.7781 11.2143 17.5852 11.0071 17.3343 10.8651C17.0857 10.723 16.7897 10.652 16.4465 10.652H14.9727ZM16.3435 8.59943V16.2983H15.0757V8.59943H16.3435Z" fill="#111C26"/>
</svg>
